<?xml version="1.0" standalone="no"?>
<!DOCTYPE svg PUBLIC "-//W3C//DTD SVG 20010904//EN"
 "http://www.w3.org/TR/2001/REC-SVG-20010904/DTD/svg10.dtd">
<svg version="1.0" xmlns="http://www.w3.org/2000/svg"
 width="700.000000pt" height="700.000000pt" viewBox="0 0 700.000000 700.000000"
 preserveAspectRatio="xMidYMid meet">
<metadata>
Created by potrace 1.14, written by Peter Selinger 2001-2017
</metadata>
<g transform="translate(0.000000,700.000000) scale(0.100000,-0.100000)"
fill="#000000" stroke="none">
<path d="M3400 6833 c-1065 -26 -2076 -589 -2674 -1488 -311 -468 -490 -971
-547 -1538 -18 -181 -7 -615 21 -792 58 -380 161 -700 333 -1038 357 -703 968
-1267 1698 -1567 317 -130 653 -211 999 -241 184 -16 554 -6 730 20 605 89
1120 307 1600 677 138 106 437 402 542 534 390 492 618 1020 709 1640 26 176
36 546 20 730 -84 979 -576 1851 -1371 2431 -502 367 -1158 601 -1747 624 -71
3 -148 7 -173 8 -25 1 -88 1 -140 0z m1007 -1718 c165 -31 291 -87 408 -181
249 -197 396 -513 462 -984 22 -160 25 -627 5 -770 -87 -613 -386 -1044 -836
-1206 -283 -101 -628 -94 -989 19 l-102 33 -3 192 -2 192 37 -16 c93 -42 297
-104 391 -119 141 -24 375 -17 480 14 215 63 368 198 473 416 77 160 128 371
144 590 l7 90 -29 -35 c-97 -121 -181 -187 -315 -249 -111 -52 -191 -71 -324
-78 -380 -20 -706 127 -888 401 -208 314 -233 835 -56 1186 104 207 289 374
502 454 168 63 451 86 635 51z m-1737 -1985 l0 -170 -560 0 -560 0 0 170 0
170 560 0 560 0 0 -170z"/>
<path d="M4055 4790 c-117 -24 -214 -79 -298 -170 -125 -135 -178 -298 -178
-550 0 -256 60 -426 198 -563 115 -115 261 -164 457 -155 208 10 364 103 469
280 105 176 135 474 72 713 -58 219 -226 392 -426 440 -68 16 -226 18 -294 5z"/>
</g>
</svg>
